HIERARCHY
ROOT Hip
{
	OFFSET 0.000000 0.000000 0.000000 
	CHANNELS 6 Xposition Yposition Zposition Xrotation Yrotation Zrotation
	JOINT LowerSpine
	{
		OFFSET 0.000000 8.345300 -5.129200 
		CHANNELS 3 Xrotation Yrotation Zrotation
		JOINT MiddleSpine
		{
			OFFSET 10.856900 0.000000 0.000000 
			CHANNELS 3 Xrotation Yrotation Zrotation
			JOINT Chest
			{
				OFFSET 15.298400 0.000000 0.000000 
				CHANNELS 3 Xrotation Yrotation Zrotation
				JOINT Neck
				{
					OFFSET 25.661800 -0.598600 0.000000 
					CHANNELS 3 Xrotation Yrotation Zrotation
					JOINT Head
					{
						OFFSET 8.882900 0.000000 0.000000 
						CHANNELS 3 Xrotation Yrotation Zrotation
						End Site
						{
							OFFSET 19.739901 0.000000 0.000000 
						}
					}
				}
				JOINT RClavicle
				{
					OFFSET 23.687799 0.000000 3.158400 
					CHANNELS 3 Xrotation Yrotation Zrotation
					JOINT RShoulder
					{
						OFFSET -15.594500 -3.948000 0.987000 
						CHANNELS 3 Xrotation Yrotation Zrotation
						JOINT RForearm
						{
							OFFSET -31.337000 0.000000 0.197400 
							CHANNELS 3 Xrotation Yrotation Zrotation
							JOINT RHand
							{
								OFFSET -26.402100 0.000000 0.000000 
								CHANNELS 3 Xrotation Yrotation Zrotation
								End Site
								{
									OFFSET -15.791900 -0.987000 0.000000 
								}
							}
						}
					}
				}
				JOINT LClavicle
				{
					OFFSET 23.687799 0.000000 -3.158400 
					CHANNELS 3 Xrotation Yrotation Zrotation
					JOINT LShoulder
					{
						OFFSET -15.594500 -3.948000 -0.987000 
						CHANNELS 3 Xrotation Yrotation Zrotation
						JOINT LForearm
						{
							OFFSET -31.337000 0.000000 -0.197400 
							CHANNELS 3 Xrotation Yrotation Zrotation
							JOINT LHand
							{
								OFFSET -26.402100 0.000000 0.000000 
								CHANNELS 3 Xrotation Yrotation Zrotation
								End Site
								{
									OFFSET -15.791900 -0.987000 0.000000 
								}
							}
						}
					}
				}
			}
		}
	}
	JOINT RThigh
	{
		OFFSET -8.882900 0.448100 0.000000 
		CHANNELS 3 Xrotation Yrotation Zrotation
		JOINT RShin
		{
			OFFSET 43.131599 0.000000 -0.493500 
			CHANNELS 3 Xrotation Yrotation Zrotation
			JOINT RFoot
			{
				OFFSET 0.000000 -44.725601 -0.404700 
				CHANNELS 3 Xrotation Yrotation Zrotation
				JOINT RToe
				{
					OFFSET 0.000000 -3.933200 12.195300 
					CHANNELS 3 Xrotation Yrotation Zrotation
					End Site
					{
						OFFSET 6.772500 0.000000 0.000000 
					}
				}
			}
		}
	}
	JOINT LThigh
	{
		OFFSET 8.882900 0.448100 0.000000 
		CHANNELS 3 Xrotation Yrotation Zrotation
		JOINT LShin
		{
			OFFSET 43.131599 0.000000 0.493500 
			CHANNELS 3 Xrotation Yrotation Zrotation
			JOINT LFoot
			{
				OFFSET 0.000000 -44.725601 0.404700 
				CHANNELS 3 Xrotation Yrotation Zrotation
				JOINT LToe
				{
					OFFSET 0.000000 -3.933200 -12.195300 
					CHANNELS 3 Xrotation Yrotation Zrotation
					End Site
					{
						OFFSET 6.772500 0.000000 0.000000 
					}
				}
			}
		}
	}
}
MOTION
Frames: 5
Frame Time: 0.016949
0.493936 84.099739 -41.317215 10.775227 -19.557943 -0.503378 -89.999992 -90.000000 0.000000 -2.060035 -1.322730 0.850017 -6.809225 -4.504580 2.644913 0.000000 0.000000 0.000000 0.000000 0.000000 0.000000 90.000252 -0.407428 -84.525902 9.197171 10.038799 57.884636 15.401064 66.192749 -16.857500 0.000000 0.000000 0.000000 -89.998604 0.032537 -89.562027 -5.472188 -44.921249 48.537380 -3.862303 -34.476570 -7.204246 0.000000 0.000000 0.000000 -51.756577 84.023415 -68.569511 89.412430 49.687168 90.225029 -27.646740 -0.447888 -0.059600 178.588913 90.000000 0.000000 -130.365829 75.105034 31.552761 -89.565598 -38.014549 90.146828 21.617359 3.069533 -2.567705 197.064819 -90.000000 0.000000 
-0.000891 83.761108 -41.912548 10.936119 -19.199965 -0.733019 -89.999992 -90.000000 0.000000 -1.939496 -1.323886 0.723295 -6.418510 -4.487311 2.226190 0.000000 0.000000 0.000000 0.000000 0.000000 0.000000 90.003349 -0.457111 -83.857246 5.806582 10.922308 55.608002 16.289831 68.655945 -17.608162 0.000000 0.000000 0.000000 -89.997841 0.050448 -89.321182 -7.482295 -43.802044 47.680679 -3.529260 -31.961929 -7.047388 0.000000 0.000000 0.000000 -56.354439 83.469460 -65.328079 89.378624 51.740261 90.246796 -27.332060 -1.240244 -0.831456 178.236282 90.000000 0.000000 -130.632919 73.463150 28.124771 -89.506767 -43.779968 90.165176 21.994400 2.276879 -1.921693 198.779465 -90.000000 0.000000 
-0.240018 83.637093 -42.216782 10.933803 -17.673956 -0.991203 -89.999992 -90.000000 0.000000 -1.792931 -1.329244 0.566434 -5.941010 -4.478855 1.714816 0.000000 0.000000 0.000000 0.000000 0.000000 0.000000 90.004990 -0.480784 -83.538475 2.048212 9.460361 53.764141 18.977833 73.770439 -20.012972 0.000000 0.000000 0.000000 -89.997627 0.056015 -89.246307 -8.778738 -42.880714 47.911839 -3.311594 -30.288336 -6.948603 0.000000 0.000000 0.000000 -58.413651 83.129967 -63.645779 89.365791 52.490154 90.255272 -26.904690 -2.079690 -1.690950 177.385941 90.000000 0.000000 -130.885101 71.629440 24.340750 -89.443748 -49.230206 90.192490 18.896763 1.109822 -0.679878 203.411331 -90.000000 0.000000 
-0.357046 83.728569 -42.355011 10.884441 -15.834139 -1.068270 -89.999992 -90.000000 0.000000 -1.637414 -1.337310 0.415789 -5.433136 -4.482720 1.224741 0.000000 0.000000 0.000000 0.000000 0.000000 0.000000 90.004456 -0.473944 -83.630676 -1.576781 5.641825 52.175140 28.400105 82.476120 -28.952112 0.000000 0.000000 0.000000 -89.997681 0.054424 -89.267731 -9.687087 -41.518219 48.989311 -3.326686 -30.465595 -6.949258 0.000000 0.000000 0.000000 -57.287777 82.980835 -64.566689 89.369743 52.295288 90.252411 -26.359798 -2.701085 -2.352110 176.303009 90.000000 0.000000 -131.448090 69.771645 20.317911 -89.369148 -54.729534 90.233185 13.318085 0.585024 0.005045 209.570786 -90.000000 0.000000 
-0.456473 84.079041 -42.450844 10.908669 -13.409501 -0.954683 -89.999992 -90.000000 0.000000 -1.481819 -1.339846 0.305602 -4.922163 -4.474837 0.870246 0.000000 0.000000 0.000000 0.000000 0.000000 0.000000 90.001907 -0.436423 -84.135826 -4.792095 0.011620 50.972240 83.750961 90.756065 -83.692207 0.000000 0.000000 0.000000 -89.997932 0.048297 -89.350052 -10.644315 -39.454666 50.129234 -3.555851 -32.311344 -7.045336 0.000000 0.000000 0.000000 -51.002319 82.756836 -70.126724 89.392105 51.066559 90.237152 -26.172068 -3.697896 -3.375701 176.420670 90.000000 0.000000 -130.701981 68.884071 14.544511 -89.278793 -60.191032 90.291626 7.591648 0.535408 0.257036 213.810440 -90.000000 0.000000 
